<svg version="1.1" viewBox="0.0 0.0 960.0 960.0" fill="none" stroke="none" stroke-linecap="square" stroke-miterlimit="10" xmlns:xlink="http://www.w3.org/1999/xlink" xmlns="http://www.w3.org/2000/svg"><clipPath id="p.0"><path d="m0 0l960.0 0l0 960.0l-960.0 0l0 -960.0z" clip-rule="nonzero"/></clipPath><g clip-path="url(#p.0)"><path fill="#000000" fill-opacity="0.0" d="m0 0l960.0 0l0 960.0l-960.0 0z" fill-rule="evenodd"/><path fill="#68310a" d="m0 480.0l0 0c0 -265.09668 214.90332 -480.0 480.0 -480.0l0 0c127.303894 0 249.3938 50.571285 339.41125 140.58875c90.017456 90.017456 140.58875 212.10733 140.58875 339.41125l0 0c0 265.09668 -214.90332 480.0 -480.0 480.0l0 0c-265.09668 0 -480.0 -214.90332 -480.0 -480.0z" fill-rule="evenodd"/><path fill="#ffffff" d="m33.02362 480.0l0 0c0 -246.85823 200.11815 -446.97638 446.97638 -446.97638l0 0c118.54553 0 232.23572 47.09202 316.06 130.91635c83.82434 83.824326 130.91638 197.51453 130.91638 316.06003l0 0c0 246.85822 -200.11816 446.97638 -446.97638 446.97638l0 0c-246.85823 0 -446.97638 -200.11816 -446.97638 -446.97638z" fill-rule="evenodd"/><path fill="#68310a" d="m320.6765 600.0l0 -18.328125q-20.34375 22.328125 -53.34375 22.328125q-24.328125 0 -40.328125 -15.328125q-16.0 -15.34375 -16.0 -38.0q0 -23.34375 15.828125 -38.171875q15.84375 -14.828125 40.5 -14.828125q34.671875 0 53.34375 22.0l0 -29.0q0 -16.34375 -11.5 -25.171875q-11.5 -8.828125 -29.171875 -8.828125q-28.328125 0 -49.328125 22.328125l-11.671875 -17.328125q25.671875 -26.671875 64.328125 -26.671875q29.671875 0 46.0 14.34375q16.34375 14.328125 16.34375 39.984375l0 110.671875l-25.0 0zm-44.34375 -14.0q29.671875 0 44.34375 -20.0l0 -30.328125q-14.671875 -20.0 -44.34375 -20.0q-17.65625 0 -28.65625 9.828125q-11.0 9.828125 -11.0 25.5q0 15.328125 11.0 25.171875q11.0 9.828125 28.65625 9.828125zm120.335754 14.0l0 -222.32812l27.671844 0l0 197.65625l103.328156 0l0 24.671875l-131.0 0zm251.66913 4.0q-43.0 0 -66.84375 -23.5q-23.828125 -23.5 -23.828125 -66.828125l0 -136.0l27.671875 0l0 135.32812q0 30.671875 16.0 48.5q16.0 17.828125 47.0 17.828125q31.000061 0 46.984436 -17.828125q16.0 -17.828125 16.0 -48.5l0 -135.32812l27.671875 0l0 135.65625q0 43.34375 -23.328125 67.015625q-23.328125 23.65625 -67.328186 23.65625z" fill-rule="nonzero"/></g></svg>