<svg version="1.1" viewBox="0.0 0.0 960.0 960.0" fill="none" stroke="none" stroke-linecap="square" stroke-miterlimit="10" xmlns:xlink="http://www.w3.org/1999/xlink" xmlns="http://www.w3.org/2000/svg"><clipPath id="p.0"><path d="m0 0l960.0 0l0 960.0l-960.0 0l0 -960.0z" clip-rule="nonzero"/></clipPath><g clip-path="url(#p.0)"><path fill="#000000" fill-opacity="0.0" d="m0 0l960.0 0l0 960.0l-960.0 0z" fill-rule="evenodd"/><path fill="#68310a" d="m0 480.0l0 0c0 -265.09668 214.90332 -480.0 480.0 -480.0l0 0c127.303894 0 249.3938 50.571285 339.41125 140.58875c90.017456 90.017456 140.58875 212.10733 140.58875 339.41125l0 0c0 265.09668 -214.90332 480.0 -480.0 480.0l0 0c-265.09668 0 -480.0 -214.90332 -480.0 -480.0z" fill-rule="evenodd"/><path fill="#ffffff" d="m33.02362 480.0l0 0c0 -246.85823 200.11815 -446.97638 446.97638 -446.97638l0 0c118.54553 0 232.23572 47.09202 316.06 130.91635c83.82434 83.824326 130.91638 197.51453 130.91638 316.06003l0 0c0 246.85822 -200.11816 446.97638 -446.97638 446.97638l0 0c-246.85823 0 -446.97638 -200.11816 -446.97638 -446.97638z" fill-rule="evenodd"/><path fill="#68310a" d="m357.80457 641.2031q-63.703125 0 -106.171875 -42.03125q-42.46875 -42.03125 -42.46875 -107.46875q0 -65.4375 42.46875 -107.46875q42.46875 -42.03125 106.171875 -42.03125q68.890625 0 109.625 57.203125l-30.328125 16.890625q-12.5625 -18.1875 -33.578125 -30.109375q-21.015625 -11.921875 -45.71875 -11.921875q-48.109375 0 -79.75 33.375q-31.625 33.359375 -31.625 84.0625q0 51.125 31.421875 84.28125q31.421875 33.15625 79.953125 33.15625q24.703125 0 45.71875 -11.703125q21.015625 -11.703125 33.578125 -30.34375l30.765625 16.90625q-42.03125 57.203125 -110.0625 57.203125zm292.9298 0q-63.703125 0 -106.171875 -42.03125q-42.46875 -42.03125 -42.46875 -107.46875q0 -65.4375 42.46875 -107.46875q42.46875 -42.03125 106.171875 -42.03125q68.890686 0 109.62506 57.203125l-30.328125 16.890625q-12.5625 -18.1875 -33.578125 -30.109375q-21.015686 -11.921875 -45.71881 -11.921875q-48.109375 0 -79.75 33.375q-31.625 33.359375 -31.625 84.0625q0 51.125 31.421875 84.28125q31.421875 33.15625 79.953125 33.15625q24.703125 0 45.71881 -11.703125q21.015625 -11.703125 33.578125 -30.34375l30.765625 16.90625q-42.03125 57.203125 -110.06256 57.203125z" fill-rule="nonzero"/></g></svg>