<svg version="1.1" viewBox="0.0 0.0 960.0 960.0" fill="none" stroke="none" stroke-linecap="square" stroke-miterlimit="10" xmlns:xlink="http://www.w3.org/1999/xlink" xmlns="http://www.w3.org/2000/svg"><clipPath id="p.0"><path d="m0 0l960.0 0l0 960.0l-960.0 0l0 -960.0z" clip-rule="nonzero"/></clipPath><g clip-path="url(#p.0)"><path fill="#000000" fill-opacity="0.0" d="m0 0l960.0 0l0 960.0l-960.0 0z" fill-rule="evenodd"/><path fill="#68310a" d="m0 480.0l0 0c0 -265.09668 214.90332 -480.0 480.0 -480.0l0 0c127.303894 0 249.3938 50.571285 339.41125 140.58875c90.017456 90.017456 140.58875 212.10733 140.58875 339.41125l0 0c0 265.09668 -214.90332 480.0 -480.0 480.0l0 0c-265.09668 0 -480.0 -214.90332 -480.0 -480.0z" fill-rule="evenodd"/><path fill="#ffffff" d="m33.02362 480.0l0 0c0 -246.85823 200.11815 -446.97638 446.97638 -446.97638l0 0c118.54553 0 232.23572 47.09202 316.06 130.91635c83.82434 83.824326 130.91638 197.51453 130.91638 316.06003l0 0c0 246.85822 -200.11816 446.97638 -446.97638 446.97638l0 0c-246.85823 0 -446.97638 -200.11816 -446.97638 -446.97638z" fill-rule="evenodd"/><path fill="#68310a" d="m263.3332 636.0l0 -289.03125l116.140625 0q41.15625 0 65.859375 24.703125q24.703125 24.703125 24.703125 62.390625q0 38.140625 -25.140625 62.625q-25.125 24.484375 -65.421875 24.484375l-80.171875 0l0 114.828125l-35.96875 0zm111.796875 -146.89062q26.0 0 41.8125 -15.171875q15.828125 -15.171875 15.828125 -39.875q0 -24.6875 -15.828125 -39.859375q-15.8125 -15.171875 -41.8125 -15.171875l-75.828125 0l0 110.078125l75.828125 0zm142.56677 146.89062l0 -289.03125l189.35938 0l0 32.0625l-153.39062 0l0 93.171875l150.35938 0l0 32.0625l-150.35938 0l0 99.671875l153.39062 0l0 32.0625l-189.35938 0z" fill-rule="nonzero"/></g></svg>